<svg width="16" height="16" viewBox="0 0 16 16" fill="none" xmlns="http://www.w3.org/2000/svg">
<path d="M4 0.75H12C13.7949 0.75 15.25 2.20507 15.25 4V12C15.25 13.7949 13.7949 15.25 12 15.25H4C2.20507 15.25 0.75 13.7949 0.75 12V4C0.75 2.20507 2.20507 0.75 4 0.75Z" stroke="#8D99A5" stroke-width="1.5"/>
<path d="M0 12H16V12C16 14.2091 14.2091 16 12 16H4C1.79086 16 0 14.2091 0 12V12Z" fill="#8D99A5"/>
<path d="M0 4C0 1.79086 1.79086 0 4 0H12C14.2091 0 16 1.79086 16 4V5H0V4Z" fill="#8D99A5"/>
</svg>
