<svg width="14" height="14" viewBox="0 0 14 14" fill="none" xmlns="http://www.w3.org/2000/svg">
<path fill-rule="evenodd" clip-rule="evenodd" d="M10.1333 6.06667C10.1333 8.31262 8.31262 10.1333 6.06667 10.1333C3.82071 10.1333 2 8.31262 2 6.06667C2 3.82071 3.82071 2 6.06667 2C8.31262 2 10.1333 3.82071 10.1333 6.06667ZM10.9992 9.59936C11.7131 8.60443 12.1333 7.38463 12.1333 6.06667C12.1333 2.71614 9.41719 0 6.06667 0C2.71614 0 0 2.71614 0 6.06667C0 9.41719 2.71614 12.1333 6.06667 12.1333C7.38457 12.1333 8.60431 11.7131 9.59922 10.9993C9.62742 11.0369 9.65861 11.0729 9.6928 11.1071L12.2928 13.7071C12.6833 14.0977 13.3165 14.0977 13.707 13.7071C14.0975 13.3166 14.0975 12.6834 13.707 12.2929L11.107 9.69292C11.0728 9.65874 11.0368 9.62756 10.9992 9.59936Z" fill="#8D99A5"/>
</svg>
