<svg width="17" height="16" viewBox="0 0 17 16" fill="none" xmlns="http://www.w3.org/2000/svg">
<path d="M15.7372 8.96458L1.89656 15.8816C0.963879 16.3478 -0.00645849 15.3477 0.449387 14.4353C0.449387 14.4353 2.16481 10.9711 2.63665 10.0637C3.10849 9.15633 3.64864 8.99926 8.6646 8.35098C8.85021 8.32697 9.00215 8.1869 9.00215 7.99982C9.00215 7.81307 8.85021 7.67301 8.6646 7.649C3.64864 7.00071 3.10849 6.84364 2.63665 5.93624C2.16481 5.02918 0.449387 1.56465 0.449387 1.56465C-0.00645849 0.65258 0.963879 -0.347862 1.89656 0.118344L15.7372 7.03573C16.5319 7.43257 16.5319 8.5674 15.7372 8.96458Z" fill="white"/>
</svg>
