<svg width="384" height="384" viewBox="0 0 384 384" fill="none" xmlns="http://www.w3.org/2000/svg">
<path d="M0 0H384V384H0V0Z" fill="white"/>
<rect width="384" height="384" fill="#0DBD8B"/>
<path fill-rule="evenodd" clip-rule="evenodd" d="M64.1212 192C64.1212 121.375 121.375 64.1212 192 64.1212C219.695 64.1212 245.333 72.9249 266.269 87.8864C264.331 92.1063 263.25 96.8018 263.25 101.75C263.25 120.113 278.136 135 296.5 135C299.74 135 302.871 134.536 305.832 133.672C314.811 151.161 319.879 170.989 319.879 192C319.879 262.626 262.626 319.879 192 319.879C121.375 319.879 64.1212 262.626 64.1212 192ZM320.589 124.669C331.148 144.792 337.121 167.698 337.121 192C337.121 272.148 272.148 337.121 192 337.121C111.852 337.121 46.8792 272.148 46.8792 192C46.8792 111.852 111.852 46.8792 192 46.8792C223.884 46.8792 253.367 57.1615 277.313 74.5912C282.733 70.7544 289.353 68.4998 296.5 68.4998C314.863 68.4998 329.75 83.3863 329.75 101.75C329.75 110.634 326.266 118.704 320.589 124.669Z" fill="white"/>
<circle cx="192" cy="192" r="85.5" fill="white"/>
</svg>
