<svg width="48" height="48" viewBox="0 0 48 48" fill="none" xmlns="http://www.w3.org/2000/svg">
<path fill-rule="evenodd" clip-rule="evenodd" d="M17.28 2.88C17.28 1.28942 18.5694 0 20.16 0C30.7639 0 39.36 8.59613 39.36 19.2C39.36 20.7906 38.0706 22.08 36.48 22.08C34.8894 22.08 33.6 20.7906 33.6 19.2C33.6 11.7773 27.5827 5.76 20.16 5.76C18.5694 5.76 17.28 4.47058 17.28 2.88Z" fill="#0DBD8B"/>
<path fill-rule="evenodd" clip-rule="evenodd" d="M30.72 45.12C30.72 46.7106 29.4306 48 27.84 48C17.2361 48 8.64 39.4039 8.64 28.8C8.64 27.2094 9.92942 25.92 11.52 25.92C13.1106 25.92 14.4 27.2094 14.4 28.8C14.4 36.2227 20.4173 42.24 27.84 42.24C29.4306 42.24 30.72 43.5294 30.72 45.12Z" fill="#0DBD8B"/>
<path fill-rule="evenodd" clip-rule="evenodd" d="M2.88 30.72C1.28942 30.72 -5.63623e-08 29.4306 -1.25889e-07 27.84C-5.89399e-07 17.2361 8.59613 8.63997 19.2 8.63997C20.7906 8.63997 22.08 9.92939 22.08 11.52C22.08 13.1106 20.7906 14.4 19.2 14.4C11.7773 14.4 5.76 20.4173 5.76 27.84C5.76 29.4306 4.47058 30.72 2.88 30.72Z" fill="#0DBD8B"/>
<path fill-rule="evenodd" clip-rule="evenodd" d="M45.12 17.28C46.7106 17.28 48 18.5694 48 20.16C48 30.7639 39.4039 39.36 28.8 39.36C27.2094 39.36 25.92 38.0706 25.92 36.48C25.92 34.8894 27.2094 33.6 28.8 33.6C36.2227 33.6 42.24 27.5827 42.24 20.16C42.24 18.5694 43.5294 17.28 45.12 17.28Z" fill="#0DBD8B"/>
</svg>
