<svg width="20" height="20" viewBox="0 0 20 20" fill="none" xmlns="http://www.w3.org/2000/svg"><path d="M0.290472 1.37627C0.677768 0.985743 1.3057 0.985743 1.69299 1.37627L16.569 16.3762C16.9563 16.7668 16.9563 17.3999 16.569 17.7904C16.1817 18.181 15.5538 18.181 15.1665 17.7904L0.290472 2.79048C-0.096824 2.39995 -0.096824 1.76679 0.290472 1.37627Z" fill="#ff00ff"></path><path d="M0.597515 5.19186C0.323238 5.646 0.165249 6.17941 0.165249 6.75001V14.0833C0.165249 15.7402 1.49729 17.0833 3.14045 17.0833H12.363L0.639137 5.2371C0.624608 5.22242 0.610733 5.20733 0.597515 5.19186Z" fill="#ff00ff"></path><path d="M14.2148 6.75002V11.9031L6.14598 3.75002H11.2396C12.8828 3.75002 14.2148 5.09317 14.2148 6.75002Z" fill="#ff00ff"></path><path d="M18.3887 5.88312L15.8677 7.91669V12.9167L18.3887 14.9503C19.038 15.4741 19.9999 15.0079 19.9999 14.1694V6.66399C19.9999 5.82548 19.038 5.35931 18.3887 5.88312Z" fill="#ff00ff"></path></svg>
