<svg width="16" height="16" viewBox="0 0 16 16" fill="none" xmlns="http://www.w3.org/2000/svg">
<path fill-rule="evenodd" clip-rule="evenodd" d="M0 4C0 1.79086 1.79086 0 4 0H12C14.2091 0 16 1.79086 16 4V12C16 14.2091 14.2091 16 12 16H4C1.79086 16 0 14.2091 0 12V4ZM1.5 4.75C1.5 4.19772 1.94772 3.75 2.5 3.75H3.5C4.05228 3.75 4.5 4.19772 4.5 4.75V11.25C4.5 11.8023 4.05228 12.25 3.5 12.25H2.5C1.94772 12.25 1.5 11.8023 1.5 11.25V4.75ZM7 3.75C6.44772 3.75 6 4.19772 6 4.75V11.25C6 11.8023 6.44772 12.25 7 12.25H13.5C14.0523 12.25 14.5 11.8023 14.5 11.25V4.75C14.5 4.19772 14.0523 3.75 13.5 3.75H7Z" fill="#8D99A5"/>
</svg>
