<svg width="16" height="16" viewBox="0 0 16 16" fill="none" xmlns="http://www.w3.org/2000/svg">
<path fill-rule="evenodd" clip-rule="evenodd" d="M4 0C1.79086 0 0 1.79086 0 4V12C0 14.2091 1.79086 16 4 16H12C14.2091 16 16 14.2091 16 12V4C16 1.79086 14.2091 0 12 0H4ZM2.5 3.75C1.94772 3.75 1.5 4.19772 1.5 4.75V11.25C1.5 11.8023 1.94772 12.25 2.5 12.25H3.5C4.05228 12.25 4.5 11.8023 4.5 11.25V4.75C4.5 4.19772 4.05228 3.75 3.5 3.75H2.5ZM11 9.75C11 9.19771 11.4477 8.75 12 8.75H13.5C14.0523 8.75 14.5 9.19772 14.5 9.75V11.25C14.5 11.8023 14.0523 12.25 13.5 12.25H12C11.4477 12.25 11 11.8023 11 11.25V9.75ZM7 8.75C6.44772 8.75 6 9.19771 6 9.75V11.25C6 11.8023 6.44772 12.25 7 12.25H8.5C9.05228 12.25 9.5 11.8023 9.5 11.25V9.75C9.5 9.19772 9.05229 8.75 8.5 8.75H7ZM11 4.75C11 4.19772 11.4477 3.75 12 3.75H13.5C14.0523 3.75 14.5 4.19772 14.5 4.75V6.25C14.5 6.80228 14.0523 7.25 13.5 7.25H12C11.4477 7.25 11 6.80228 11 6.25V4.75ZM7 3.75C6.44772 3.75 6 4.19772 6 4.75V6.25C6 6.80228 6.44772 7.25 7 7.25H8.5C9.05228 7.25 9.5 6.80228 9.5 6.25V4.75C9.5 4.19772 9.05229 3.75 8.5 3.75H7Z" fill="#8D99A5"/>
</svg>
