<?xml version="1.0" encoding="UTF-8" standalone="no"?>
<svg
   width="24"
   height="24"
   viewBox="0 0 24 24"
   fill="none"
   version="1.1"
   xmlns="http://www.w3.org/2000/svg"
   xmlns:svg="http://www.w3.org/2000/svg">
  <path
     d="m 4.1217459,2.7782531 c -0.3709886,-0.3710026 -0.9725054,-0.3710026 -1.343494,0 -0.3710025,0.3709886 -0.3710025,0.9725053 0,1.3434939 L 8.1999992,9.5435095 V 12 c 0,2.098686 1.7013144,3.8 3.7999998,3.8 0.704722,0 1.364635,-0.19183 1.93037,-0.526122 l 1.372342,1.372328 C 14.370936,17.309764 13.231045,17.7 11.999999,17.7 8.8519707,17.7 6.2999991,15.148029 6.2999991,12 c 0,-0.524663 -0.4253364,-0.95 -0.95,-0.95 -0.5246638,0 -0.9500002,0.425337 -0.9500002,0.95 0,3.875644 2.9009978,7.073739 6.6500001,7.541217 V 20.55 c 0,0.52471 0.425337,0.95 0.95,0.95 0.524664,0 0.95,-0.42529 0.95,-0.95 v -1.008783 c 1.387668,-0.173095 2.659163,-0.720139 3.710352,-1.537372 l 3.217902,3.217902 c 0.371004,0.371004 0.97249,0.371004 1.343494,0 0.371004,-0.371004 0.371004,-0.97249 0,-1.343494 z"
     fill="#ff00ff" />
  <path
     d="m 17.50209,13.494223 1.488825,1.49188 C 19.383012,14.069434 19.6,13.060061 19.6,12 c 0,-0.524663 -0.425289,-0.95 -0.95,-0.95 -0.52471,0 -0.95,0.425337 -0.95,0.95 0,0.517048 -0.06887,1.017997 -0.19791,1.494223 z"
     fill="#ff00ff" />
  <path
     d="M 8.609236,4.5827722 15.8,11.788534 V 6.3000001 c 0,-2.0986857 -1.701315,-3.8 -3.800001,-3.8 -1.480728,0 -2.7636389,0.8469192 -3.390763,2.0827721 z"
     fill="#ff00ff" />
</svg>
