<?xml version="1.0" encoding="UTF-8" standalone="no"?>
<svg
   width="24"
   height="24"
   viewBox="0 0 24 24"
   fill="none"
   version="1.1"
   xmlns="http://www.w3.org/2000/svg"
   xmlns:svg="http://www.w3.org/2000/svg">
  <path
     d="M 8.06739,6.2516702 C 8.06739,4.1796776 9.8281549,2.5 12.000157,2.5 c 2.172018,0 3.932783,1.6796776 3.932783,3.7516702 v 5.6107078 c 0,2.071992 -1.760765,3.75167 -3.932783,3.75167 -2.1720021,0 -3.932767,-1.679678 -3.932767,-3.75167 z"
     fill="#ff00ff" />
  <path
     d="m 5.1176439,10.664726 c 0.69616,0 1.2605143,0.53836 1.2605143,1.20246 0,2.951033 2.507364,5.346879 5.6068308,5.354479 0.0051,0 0.01014,0 0.01523,0 0.0051,0 0.0101,0 0.01514,0 3.099312,-0.0078 5.606474,-2.403554 5.606474,-5.354479 0,-0.6641 0.564416,-1.20246 1.260515,-1.20246 0.696097,0 1.260514,0.53836 1.260514,1.20246 0,3.878047 -2.984629,7.089761 -6.882141,7.66705 v 0.763258 c 0,0.664146 -0.564339,1.202506 -1.260499,1.202506 -0.69616,0 -1.260514,-0.53836 -1.260514,-1.202506 v -0.763258 c -3.8976481,-0.577135 -6.8825558,-3.788863 -6.8825558,-7.66705 0,-0.6641 0.5643543,-1.20246 1.2604987,-1.20246 z"
     fill="#ff00ff" />
</svg>
